<?xml version="1.0" standalone="no"?>
<!DOCTYPE svg PUBLIC "-//W3C//DTD SVG 20010904//EN"
 "http://www.w3.org/TR/2001/REC-SVG-20010904/DTD/svg10.dtd">
<svg version="1.0" xmlns="http://www.w3.org/2000/svg"
 width="500.000000pt" height="500.000000pt" viewBox="0 0 500.000000 500.000000"
 preserveAspectRatio="xMidYMid meet">
<metadata>
Created by potrace 1.11, written by Peter Selinger 2001-2013
</metadata>
<g transform="translate(0.000000,500.000000) scale(0.100000,-0.100000)"
fill="#000000" stroke="none">
<path d="M2337 4490 c-41 -33 -80 -121 -75 -175 3 -45 3 -45 -32 -51 -131 -22
-294 -86 -403 -158 -107 -71 -246 -233 -278 -324 -9 -25 -13 -27 -72 -27 -103
0 -176 -55 -229 -171 -32 -69 -32 -208 -1 -276 32 -70 70 -115 122 -146 38
-22 58 -27 116 -27 l70 -1 23 -44 c52 -104 5 -323 -141 -661 -138 -317 -152
-698 -36 -1026 60 -169 120 -262 216 -336 218 -166 547 -249 933 -233 491 19
798 155 918 406 85 177 116 325 116 550 0 240 -29 375 -145 671 -64 165 -121
361 -135 470 -6 42 -2 58 30 126 l37 78 67 0 c104 1 180 55 231 164 35 76 37
211 4 283 -32 70 -70 115 -122 146 -40 23 -57 27 -122 26 l-75 -1 -35 65 c-65
124 -223 269 -377 346 -77 39 -214 82 -307 96 -44 7 -81 14 -83 15 -2 2 4 20
12 40 30 71 13 74 -52 10 -24 -25 -49 -45 -53 -45 -15 0 -10 37 11 101 12 34
19 63 16 66 -8 8 -43 -16 -75 -52 -18 -21 -33 -52 -37 -75 -4 -24 -12 -40 -20
-40 -20 0 -18 52 6 141 11 41 20 77 20 82 0 13 -16 8 -43 -13z m-184 -720 c45
-14 80 -34 114 -63 47 -42 49 -43 93 -34 25 4 92 6 149 3 l104 -5 45 40 c124
109 355 104 474 -11 49 -47 51 -51 45 -92 -4 -35 -14 -51 -52 -85 -124 -113
-351 -109 -478 7 -53 48 -56 49 -133 56 -121 10 -185 -6 -246 -61 -125 -112
-351 -113 -475 -1 -44 41 -48 47 -48 91 0 44 4 50 48 91 88 79 229 104 360 64z
m-647 -106 c-25 -66 -32 -333 -11 -416 7 -26 5 -28 -22 -28 -17 0 -45 10 -64
23 -133 89 -133 325 0 414 41 28 107 32 97 7z m2029 -18 c59 -45 80 -97 80
-197 0 -78 -3 -90 -30 -134 -39 -62 -72 -86 -130 -92 l-47 -6 9 49 c13 80 8
262 -11 333 -13 52 -14 66 -4 73 24 16 96 2 133 -26z m-655 -306 c73 -36 125
-85 179 -165 148 -222 269 -595 302 -930 16 -166 6 -417 -20 -518 -72 -276
-308 -451 -690 -513 -215 -35 -460 6 -674 112 -112 55 -168 96 -250 183 -76
81 -130 182 -152 286 -23 104 -30 332 -16 466 35 319 162 710 305 933 48 74
78 103 146 135 50 23 67 26 175 26 l120 0 70 -43 c82 -50 93 -50 184 4 78 46
108 54 201 50 54 -2 88 -9 120 -26z"/>
<path d="M1840 3620 l0 -100 190 0 190 0 0 100 0 100 -190 0 -190 0 0 -100z
m370 0 l0 -90 -180 0 -180 0 0 90 0 90 180 0 180 0 0 -90z"/>
<path d="M1868 3693 c7 -3 16 -2 19 1 4 3 -2 6 -13 5 -11 0 -14 -3 -6 -6z"/>
<path d="M1913 3693 c9 -2 25 -2 35 0 9 3 1 5 -18 5 -19 0 -27 -2 -17 -5z"/>
<path d="M1993 3693 c15 -2 37 -2 50 0 12 2 0 4 -28 4 -27 0 -38 -2 -22 -4z"/>
<path d="M2083 3693 c9 -2 25 -2 35 0 9 3 1 5 -18 5 -19 0 -27 -2 -17 -5z"/>
<path d="M2153 3693 c9 -2 25 -2 35 0 9 3 1 5 -18 5 -19 0 -27 -2 -17 -5z"/>
<path d="M1860 3670 c0 -5 5 -10 10 -10 6 0 10 5 10 10 0 6 -4 10 -10 10 -5 0
-10 -4 -10 -10z"/>
<path d="M1890 3670 c0 -5 9 -10 20 -10 11 0 20 5 20 10 0 6 -9 10 -20 10 -11
0 -20 -4 -20 -10z"/>
<path d="M1940 3670 c0 -5 5 -10 10 -10 6 0 10 5 10 10 0 6 -4 10 -10 10 -5 0
-10 -4 -10 -10z"/>
<path d="M1970 3670 c0 -5 9 -10 20 -10 11 0 20 5 20 10 0 6 -9 10 -20 10 -11
0 -20 -4 -20 -10z"/>
<path d="M2020 3670 c0 -5 9 -10 20 -10 11 0 20 5 20 10 0 6 -9 10 -20 10 -11
0 -20 -4 -20 -10z"/>
<path d="M2070 3670 c0 -5 9 -10 20 -10 11 0 20 5 20 10 0 6 -9 10 -20 10 -11
0 -20 -4 -20 -10z"/>
<path d="M2120 3670 c0 -5 5 -10 10 -10 6 0 10 5 10 10 0 6 -4 10 -10 10 -5 0
-10 -4 -10 -10z"/>
<path d="M2150 3670 c0 -5 11 -10 25 -10 14 0 25 5 25 10 0 6 -11 10 -25 10
-14 0 -25 -4 -25 -10z"/>
<path d="M1860 3640 c0 -5 7 -10 15 -10 8 0 15 5 15 10 0 6 -7 10 -15 10 -8 0
-15 -4 -15 -10z"/>
<path d="M1900 3640 c0 -5 9 -10 20 -10 11 0 20 5 20 10 0 6 -9 10 -20 10 -11
0 -20 -4 -20 -10z"/>
<path d="M1950 3640 c0 -5 9 -10 20 -10 11 0 20 5 20 10 0 6 -9 10 -20 10 -11
0 -20 -4 -20 -10z"/>
<path d="M2000 3640 c0 -5 5 -10 10 -10 6 0 10 5 10 10 0 6 -4 10 -10 10 -5 0
-10 -4 -10 -10z"/>
<path d="M2030 3640 c0 -5 9 -10 20 -10 11 0 20 5 20 10 0 6 -9 10 -20 10 -11
0 -20 -4 -20 -10z"/>
<path d="M2080 3640 c0 -5 9 -10 20 -10 11 0 20 5 20 10 0 6 -9 10 -20 10 -11
0 -20 -4 -20 -10z"/>
<path d="M2130 3640 c0 -5 5 -10 10 -10 6 0 10 5 10 10 0 6 -4 10 -10 10 -5 0
-10 -4 -10 -10z"/>
<path d="M2160 3640 c0 -5 9 -10 20 -10 11 0 20 5 20 10 0 6 -9 10 -20 10 -11
0 -20 -4 -20 -10z"/>
<path d="M1860 3610 c0 -5 7 -10 15 -10 8 0 15 5 15 10 0 6 -7 10 -15 10 -8 0
-15 -4 -15 -10z"/>
<path d="M1900 3610 c0 -5 5 -10 10 -10 6 0 10 5 10 10 0 6 -4 10 -10 10 -5 0
-10 -4 -10 -10z"/>
<path d="M1930 3610 c0 -5 5 -10 10 -10 6 0 10 5 10 10 0 6 -4 10 -10 10 -5 0
-10 -4 -10 -10z"/>
<path d="M1960 3610 c0 -5 9 -10 20 -10 11 0 20 5 20 10 0 6 -9 10 -20 10 -11
0 -20 -4 -20 -10z"/>
<path d="M2010 3610 c0 -5 9 -10 20 -10 11 0 20 5 20 10 0 6 -9 10 -20 10 -11
0 -20 -4 -20 -10z"/>
<path d="M2060 3610 c0 -5 5 -10 10 -10 6 0 10 5 10 10 0 6 -4 10 -10 10 -5 0
-10 -4 -10 -10z"/>
<path d="M2090 3610 c0 -5 9 -10 20 -10 11 0 20 5 20 10 0 6 -9 10 -20 10 -11
0 -20 -4 -20 -10z"/>
<path d="M2140 3610 c0 -5 11 -10 25 -10 14 0 25 5 25 10 0 6 -11 10 -25 10
-14 0 -25 -4 -25 -10z"/>
<path d="M1860 3580 c0 -5 9 -10 20 -10 11 0 20 5 20 10 0 6 -9 10 -20 10 -11
0 -20 -4 -20 -10z"/>
<path d="M1910 3580 c0 -5 5 -10 10 -10 6 0 10 5 10 10 0 6 -4 10 -10 10 -5 0
-10 -4 -10 -10z"/>
<path d="M1940 3580 c0 -5 5 -10 10 -10 6 0 10 5 10 10 0 6 -4 10 -10 10 -5 0
-10 -4 -10 -10z"/>
<path d="M1970 3580 c0 -5 9 -10 20 -10 11 0 20 5 20 10 0 6 -9 10 -20 10 -11
0 -20 -4 -20 -10z"/>
<path d="M2020 3580 c0 -5 9 -10 20 -10 11 0 20 5 20 10 0 6 -9 10 -20 10 -11
0 -20 -4 -20 -10z"/>
<path d="M2070 3580 c0 -5 9 -10 20 -10 11 0 20 5 20 10 0 6 -9 10 -20 10 -11
0 -20 -4 -20 -10z"/>
<path d="M2120 3580 c0 -5 5 -10 10 -10 6 0 10 5 10 10 0 6 -4 10 -10 10 -5 0
-10 -4 -10 -10z"/>
<path d="M2150 3580 c0 -5 11 -10 25 -10 14 0 25 5 25 10 0 6 -11 10 -25 10
-14 0 -25 -4 -25 -10z"/>
<path d="M1930 3550 c0 -6 37 -10 90 -10 53 0 90 4 90 10 0 6 -37 10 -90 10
-53 0 -90 -4 -90 -10z"/>
<path d="M2120 3550 c0 -5 7 -10 15 -10 8 0 15 5 15 10 0 6 -7 10 -15 10 -8 0
-15 -4 -15 -10z"/>
<path d="M2856 3697 c3 -8 1 -18 -5 -22 -6 -3 -11 -11 -11 -16 0 -6 12 -1 26
10 15 12 35 21 45 21 29 0 76 -48 95 -96 22 -57 9 -89 -42 -110 -71 -30 -111
4 -124 104 -7 56 -7 56 -8 12 -2 -56 28 -126 58 -135 56 -18 140 31 140 82 0
62 -80 157 -129 151 -14 -1 -32 1 -38 5 -9 6 -11 3 -7 -6z"/>
<path d="M2900 3617 c0 -8 7 -21 16 -28 14 -11 15 -10 12 11 -3 26 -28 41 -28
17z"/>
<path d="M2561 3021 c-29 -40 -38 -112 -18 -130 24 -19 53 2 73 55 30 80 -11
137 -55 75z"/>
<path d="M2262 3028 c-17 -17 -15 -46 9 -94 30 -63 78 -70 79 -12 0 30 -32 98
-51 108 -22 12 -23 12 -37 -2z"/>
<path d="M2155 1969 c-66 -5 -178 -10 -248 -13 -70 -2 -130 -6 -133 -9 -3 -3
19 -17 48 -31 53 -26 53 -26 173 -14 157 16 833 16 990 0 120 -12 120 -12 173
14 29 14 51 29 48 32 -3 3 -56 6 -118 8 -62 1 -183 7 -268 13 -176 12 -487 12
-665 0z"/>
<path d="M2344 1808 c-34 -16 -44 -52 -44 -154 0 -87 2 -97 25 -119 17 -18 35
-25 64 -25 38 0 39 -1 37 -32 l-1 -33 78 -3 c88 -3 110 6 101 44 -6 22 -3 24
30 24 26 0 44 7 61 25 23 22 25 32 25 120 0 106 -14 148 -52 159 -38 10 -301
5 -324 -6z m337 -37 c15 -18 19 -39 19 -97 l0 -74 -189 0 -188 0 -2 75 c-2 68
0 77 23 100 24 24 27 24 171 22 141 -2 148 -3 166 -26z m9 -206 c0 -28 -39
-35 -184 -35 -118 0 -147 3 -160 16 -9 8 -16 20 -16 25 0 5 76 9 180 9 151 0
180 -2 180 -15z m-110 -74 c5 -11 10 -22 10 -25 0 -3 -34 -6 -75 -6 -41 0 -75
3 -75 6 0 3 5 14 10 25 9 15 22 19 65 19 43 0 56 -4 65 -19z"/>
</g>
</svg>
